<svg xmlns="http://www.w3.org/2000/svg" viewBox="0 0 24 24" fill="currentColor">
  <path d="M12 12c1.66 0 3-1.34 3-3s-1.34-3-3-3-3 1.34-3 3 1.34 3 3 3zm0 2c-2.76 0-5 2.24-5 5h10c0-2.76-2.24-5-5-5zm0-10c-2.76 0-5 2.24-5 5s2.24 5 5 5 5-2.24 5-5-2.24-5-5-5zm0 12c-3.86 0-7 3.14-7 7h14c0-3.86-3.14-7-7-7zM20 4h-3.17l-1.42-1.42C15.05 2.22 14.55 2 14 2h-4c-.55 0-1.05.22-1.41.58L7.17 4H4c-1.1 0-2 .9-2 2v12c0 1.1.9 2 2 2h16c1.1 0 2-.9 2-2V6c0-1.1-.9-2-2-2zm0 14H4V6h4.55l1.41-1.41c.19-.19.45-.29.71-.29h4c.26 0 .52.1.71.29l1.41 1.41H20v12z"/>
</svg>